<svg xmlns="http://www.w3.org/2000/svg" viewBox="0 0 300 800"><defs><style>.cls-1{isolation:isolate;}.cls-2{fill:#fff;}.cls-3{fill:#9adee1;}.cls-4{fill:#f7f7f7;}.cls-5{fill:#e0e2e2;}.cls-6{fill:#e3e5e5;}.cls-7{fill:#ebeded;}.cls-8{fill:#eaefef;}.cls-9{fill:#d4d8d8;}.cls-10{fill:#d14242;}.cls-11{fill:#f6f6f6;}.cls-12{fill:#fa6563;}.cls-13{fill:#464648;opacity:0.09;mix-blend-mode:multiply;}.cls-14{opacity:0.45;}</style></defs><title>background</title><g class="cls-1"><g id="BACKGROUND"><rect class="cls-2" width="500" height="500"/><rect class="cls-3" width="500" height="500"/></g><g id="OBJECTS"><polygon class="cls-4" points="298.76 210.85 307.76 233.39 335.35 225.3 298.76 210.85"/><polygon class="cls-5" points="303.69 242.71 286.33 274.71 321.09 267.39 312.04 243.3 303.69 242.71"/><polygon class="cls-6" points="307.76 233.39 343.2 222.26 330.04 247.9 307.76 233.39"/><polygon class="cls-4" points="321.09 267.39 330.04 247.9 307.76 233.39 321.09 267.39"/><polygon class="cls-7" points="251.86 229.6 298.76 210.85 315.47 252.71 251.86 229.6"/><polygon class="cls-8" points="320.54 219.5 339.68 203.1 343.2 222.26 334.39 225.12 320.54 219.5"/><polygon class="cls-9" points="339.68 203.1 347.91 210.86 341.3 211.88 339.68 203.1"/><polygon class="cls-4" points="177.88 96.84 170.91 117.98 145.2 112.13 177.88 96.84"/><polygon class="cls-5" points="175.16 126.29 192.85 154.6 160.62 149.86 167.55 127.29 175.16 126.29"/><polygon class="cls-6" points="170.91 117.98 137.84 109.78 151.33 132.52 170.91 117.98"/><polygon class="cls-4" points="160.62 149.86 151.33 132.52 170.91 117.98 160.62 149.86"/><polygon class="cls-7" points="221.87 111.38 177.88 96.84 164.94 136.1 221.87 111.38"/><polygon class="cls-8" points="158.43 105.98 139.98 92.05 137.84 109.78 146.07 111.9 158.43 105.98"/><polygon class="cls-9" points="139.98 92.05 132.89 99.61 139 100.18 139.98 92.05"/><path class="cls-4" d="M131.21,177.08a10.83,10.83,0,0,0-2.69.34c0-.38,0-.76,0-1.14a20.7,20.7,0,0,0-40.69-5.35,14.2,14.2,0,1,0-5.19,27.87l1,.12h47.51a10.92,10.92,0,1,0,0-21.84Z" transform="translate(-0.02)"/><path class="cls-4" d="M444.09,160a10.17,10.17,0,0,0-12-10A17.11,17.11,0,0,0,415.24,136a16.81,16.81,0,0,0-4.1.52,24.93,24.93,0,0,0-49,6.43c0,.46,0,.92,0,1.38a13.3,13.3,0,0,0-3.23-.42,13.16,13.16,0,0,0,0,26.32h15.52v0h59.6A10.18,10.18,0,0,0,444.09,160Z" transform="translate(-0.02)"/><path class="cls-8" d="M147.32,293.85a9.44,9.44,0,0,1,9.43-9.44,8.85,8.85,0,0,1,1.71.17A15.81,15.81,0,0,1,177.85,272a23.1,23.1,0,0,1,45.42,6c0,.43,0,.85,0,1.28a11.86,11.86,0,0,1,3-.39,12.2,12.2,0,0,1,0,24.39H211.85v0H156.61A9.44,9.44,0,0,1,147.32,293.85Z" transform="translate(-0.02)"/><path class="cls-10" d="M276.58,335.35a25.62,25.62,0,1,1-51.23,0C225.35,321.2,276.58,321.2,276.58,335.35Z" transform="translate(-0.02)"/><path class="cls-11" d="M78.54,331.17,219.48,333s6,2.72,8.6,3.71c23.82-5.54,46.67,0,46.67,0l6.66-3.66,148.8-1.88a127.29,127.29,0,0,0-15-42s-117,5.57-165,33.26c0,0-101.23-36.43-155.81-39.7C94.38,282.75,78.54,305.09,78.54,331.17Z" transform="translate(-0.02)"/><path class="cls-12" d="M430.21,331.17H275.12a3.43,3.43,0,0,0-3.33,2.88,22,22,0,0,1-43.64-.88,2.71,2.71,0,0,0-2.8-2H69.83v11.09H219.6a32.38,32.38,0,0,0,60.84,0H430.21Z" transform="translate(-0.02)"/><path class="cls-11" d="M102.69,273.45l2.47-1.82s77,14,145,50.82c0,0,2.25,1.75-.91.35C232.07,315.16,169.6,285.1,102.69,273.45Z" transform="translate(-0.02)"/><path class="cls-11" d="M108.87,268.44l2.61-1.62s72.8,13.06,143.83,58.19c0,0,2.1,1.92-.93.28C237.82,316.31,182.44,283.44,108.87,268.44Z" transform="translate(-0.02)"/><path class="cls-11" d="M97.22,278.73l1.85-1.92s84.83,10.81,152.41,48.55c0,0,1.59,1.44-1.46-.17C232.91,316.15,187.06,294.34,97.22,278.73Z" transform="translate(-0.02)"/><path class="cls-13" d="M99.51,298s68.12,6.14,137.35,26.14c0,0-90.94-21.11-138.47-23.07A9.63,9.63,0,0,1,99.51,298Z" transform="translate(-0.02)"/><path class="cls-13" d="M96.33,313.16s60.76-.09,143.54,14.55c0,0-79.44-11.63-144.47-12.27C95.8,313.49,96.33,313.16,96.33,313.16Z" transform="translate(-0.02)"/><path class="cls-13" d="M95.4,324.14s117.89,2.57,141.46,5.1c0,0-132.6-4.46-141.88-3.72Z" transform="translate(-0.02)"/><path class="cls-11" d="M412.47,285.59l-2.24-2.09s-78.05,5-149.94,33.72c0,0-2.44,1.48.86.45C279.13,312.08,344.65,289.44,412.47,285.59Z" transform="translate(-0.02)"/><path class="cls-11" d="M400.06,273.7l-2.52-1.76s-73.41,9-146.82,50.18c0,0-2.21,1.8.92.33C268.66,314.4,325.77,284.63,400.06,273.7Z" transform="translate(-0.02)"/><path class="cls-13" d="M408.7,299.11s-68.83,5-138.06,25c0,0,90.93-21.11,138.46-23.07Z" transform="translate(-0.02)"/><path class="cls-13" d="M412.15,316.07s-60.76-.09-143.54,14.55c0,0,79.44-11.63,144.47-12.27C412.69,316.39,412.15,316.07,412.15,316.07Z" transform="translate(-0.02)"/><path class="cls-13" d="M409.53,307s-106.34,10.88-140.46,20c0,0,65.31-11.77,141-18.71Z" transform="translate(-0.02)"/><circle class="cls-4" cx="294.49" cy="38.99" r="2.59"/><circle class="cls-4" cx="71.34" cy="135.11" r="2.59"/><circle class="cls-4" cx="302.48" cy="123.74" r="2.59"/><circle class="cls-4" cx="182.2" cy="53.9" r="2.59"/><circle class="cls-4" cx="171.38" cy="190.97" r="2.59"/><circle class="cls-4" cx="317.05" cy="178.54" r="2.59"/><circle class="cls-4" cx="398.66" cy="236.87" r="2.59"/><circle class="cls-4" cx="243.61" cy="252.71" r="2.59"/><g class="cls-14"><path class="cls-4" d="M368.43,207.42a5.11,5.11,0,0,0-3.07-3.11,5.06,5.06,0,0,0,3.11-3.07,5,5,0,0,0,3.07,3.11A5.09,5.09,0,0,0,368.43,207.42Z" transform="translate(-0.02)"/><path class="cls-4" d="M439.52,282.17a5.09,5.09,0,0,0-3.07-3.11,5,5,0,0,0,3.11-3.07,5.09,5.09,0,0,0,3.07,3.11A5.11,5.11,0,0,0,439.52,282.17Z" transform="translate(-0.02)"/><path class="cls-4" d="M266.46,280.89a5.09,5.09,0,0,0-3.07-3.11,5.11,5.11,0,0,0,3.11-3.07,5.06,5.06,0,0,0,3.07,3.11A5,5,0,0,0,266.46,280.89Z" transform="translate(-0.02)"/><path class="cls-4" d="M374.61,34.64a5.06,5.06,0,0,0-3.07-3.11,5.06,5.06,0,0,0,3.11-3.07,5.11,5.11,0,0,0,3.07,3.11A5.09,5.09,0,0,0,374.61,34.64Z" transform="translate(-0.02)"/><path class="cls-4" d="M424.39,114.85a5.09,5.09,0,0,0-3.07-3.11,5.09,5.09,0,0,0,3.11-3.07,5.06,5.06,0,0,0,3.07,3.11A5,5,0,0,0,424.39,114.85Z" transform="translate(-0.02)"/><path class="cls-4" d="M79.21,257.15A5.09,5.09,0,0,0,76.14,254,5,5,0,0,0,79.25,251a5.06,5.06,0,0,0,3.07,3.11A5.09,5.09,0,0,0,79.21,257.15Z" transform="translate(-0.02)"/><path class="cls-4" d="M131.8,249.39a5.21,5.21,0,0,0-3.16-3.21,5.2,5.2,0,0,0,3.2-3.16,5.21,5.21,0,0,0,3.17,3.2A5.23,5.23,0,0,0,131.8,249.39Z" transform="translate(-0.02)"/><path class="cls-4" d="M119.18,227.47a7.37,7.37,0,0,0-4.45-4.51,7.34,7.34,0,0,0,4.51-4.45,7.32,7.32,0,0,0,4.45,4.51A7.37,7.37,0,0,0,119.18,227.47Z" transform="translate(-0.02)"/><path class="cls-4" d="M171.37,237.3a8.19,8.19,0,0,0-5-5,8.14,8.14,0,0,0,5-4.95,8.21,8.21,0,0,0,4.95,5A8.15,8.15,0,0,0,171.37,237.3Z" transform="translate(-0.02)"/><path class="cls-4" d="M370.38,266.78a9,9,0,0,0-5.47-5.54,9,9,0,0,0,5.55-5.47,9,9,0,0,0,5.47,5.55A9,9,0,0,0,370.38,266.78Z" transform="translate(-0.02)"/><path class="cls-4" d="M134.37,68.9a7.08,7.08,0,0,0-4.28-4.34,7.1,7.1,0,0,0,4.34-4.29,7,7,0,0,0,4.28,4.34A7.07,7.07,0,0,0,134.37,68.9Z" transform="translate(-0.02)"/><path class="cls-4" d="M261.59,193.91a8.11,8.11,0,0,0-4.92-5,8.12,8.12,0,0,0,5-4.91,8.13,8.13,0,0,0,4.91,5A8.12,8.12,0,0,0,261.59,193.91Z" transform="translate(-0.02)"/><path class="cls-4" d="M408.74,76.63a8.12,8.12,0,0,0-4.92-5,8.1,8.1,0,0,0,5-4.92,8.14,8.14,0,0,0,4.92,5A8.11,8.11,0,0,0,408.74,76.63Z" transform="translate(-0.02)"/><path class="cls-4" d="M302.47,92.05a7.59,7.59,0,0,0-4.6-4.66,7.59,7.59,0,0,0,4.66-4.6,7.57,7.57,0,0,0,4.6,4.66A7.57,7.57,0,0,0,302.47,92.05Z" transform="translate(-0.02)"/><path class="cls-4" d="M113.88,121.1a7.61,7.61,0,0,0-4.6-4.66,7.6,7.6,0,0,0,4.66-4.59,7.56,7.56,0,0,0,4.59,4.65A7.6,7.6,0,0,0,113.88,121.1Z" transform="translate(-0.02)"/><path class="cls-4" d="M250.21,111.76a7.13,7.13,0,0,0-4.32-4.38,7.14,7.14,0,0,0,4.38-4.31,7.09,7.09,0,0,0,4.32,4.37A7.11,7.11,0,0,0,250.21,111.76Z" transform="translate(-0.02)"/><path class="cls-4" d="M238.39,159a7.09,7.09,0,0,0-4.32-4.37,7.13,7.13,0,0,0,4.38-4.32,7.09,7.09,0,0,0,4.32,4.37A7.18,7.18,0,0,0,238.39,159Z" transform="translate(-0.02)"/><path class="cls-4" d="M234.42,47.68a7.13,7.13,0,0,0-4.32-4.38A7.14,7.14,0,0,0,234.48,39a7.09,7.09,0,0,0,4.32,4.37A7.11,7.11,0,0,0,234.42,47.68Z" transform="translate(-0.02)"/><path class="cls-4" d="M87.47,43.33A7.12,7.12,0,0,0,83.15,39a7.09,7.09,0,0,0,4.37-4.32A7.18,7.18,0,0,0,91.84,39,7.1,7.1,0,0,0,87.47,43.33Z" transform="translate(-0.02)"/><path class="cls-4" d="M48.71,231.51a7,7,0,0,0-4.23-4.28A7,7,0,0,0,48.77,223,7,7,0,0,0,53,227.28,7,7,0,0,0,48.71,231.51Z" transform="translate(-0.02)"/><path class="cls-4" d="M439.5,209a9.11,9.11,0,0,0-5.53-5.6,9.17,9.17,0,0,0,5.61-5.54,9.1,9.1,0,0,0,5.53,5.61A9.15,9.15,0,0,0,439.5,209Z" transform="translate(-0.02)"/><path class="cls-4" d="M205.39,192.05a5,5,0,0,0-3.07-3.11,5.1,5.1,0,0,0,3.12-3.07,5.06,5.06,0,0,0,3.07,3.11A5.05,5.05,0,0,0,205.39,192.05Z" transform="translate(-0.02)"/><path class="cls-4" d="M351,117.94a5.06,5.06,0,0,0-3.07-3.11,5.09,5.09,0,0,0,3.11-3.07,5.06,5.06,0,0,0,3.07,3.11A5.06,5.06,0,0,0,351,117.94Z" transform="translate(-0.02)"/><path class="cls-4" d="M136.85,196.69c-1.89-4.27-3.44-5.83-7.68-7.78,4.27-1.89,5.83-3.44,7.78-7.68,1.89,4.27,3.43,5.83,7.68,7.78C140.36,190.9,138.79,192.44,136.85,196.69Z" transform="translate(-0.02)"/><path class="cls-4" d="M62,291.45a7.81,7.81,0,0,0-4.75-4.81A7.87,7.87,0,0,0,62,281.88a7.85,7.85,0,0,0,4.75,4.82A7.88,7.88,0,0,0,62,291.45Z" transform="translate(-0.02)"/><path class="cls-4" d="M345.88,66.73a7,7,0,0,0-4.23-4.29,7,7,0,0,0,4.28-4.23,7,7,0,0,0,4.24,4.29A7,7,0,0,0,345.88,66.73Z" transform="translate(-0.02)"/><path class="cls-4" d="M119.19,318.87a5.1,5.1,0,0,0-3.07-3.12,5.06,5.06,0,0,0,3.11-3.07,5,5,0,0,0,3.07,3.11A5.08,5.08,0,0,0,119.19,318.87Z" transform="translate(-0.02)"/><path class="cls-4" d="M368.43,152.68a5.09,5.09,0,0,0-3.07-3.11,5.11,5.11,0,0,0,3.11-3.07,5.06,5.06,0,0,0,3.07,3.11A5,5,0,0,0,368.43,152.68Z" transform="translate(-0.02)"/></g></g></g></svg>